<svg width="306" height="205" viewBox="0 0 306 205" fill="none" xmlns="http://www.w3.org/2000/svg">
<path d="M25.295 30.3471C25.4232 25.9307 29.1074 22.4544 33.5238 22.5827L290.021 30.0319C294.438 30.1602 297.914 33.8443 297.785 38.2608L293.358 190.711L28.8642 183.029C24.4477 182.901 20.9715 179.217 21.0998 174.801L25.295 30.3471Z" fill="#DFFFF0"/>
<circle cx="35.4293" cy="168.914" r="4.82265" transform="rotate(1.04394 35.4293 168.914)" fill="#413F3F" fill-opacity="0.8"/>
<circle cx="35.7076" cy="153.645" r="4.82265" transform="rotate(1.04394 35.7076 153.645)" fill="#413F3F" fill-opacity="0.8"/>
<circle cx="35.9857" cy="138.376" r="4.82265" transform="rotate(1.04394 35.9857 138.376)" fill="#413F3F" fill-opacity="0.8"/>
<circle cx="36.264" cy="123.106" r="4.82265" transform="rotate(1.04394 36.264 123.106)" fill="#413F3F" fill-opacity="0.8"/>
<circle cx="36.5422" cy="107.837" r="4.82265" transform="rotate(1.04394 36.5422 107.837)" fill="#413F3F" fill-opacity="0.8"/>
<circle cx="36.8204" cy="92.5681" r="4.82265" transform="rotate(1.04394 36.8204 92.5681)" fill="#413F3F" fill-opacity="0.8"/>
<circle cx="37.0987" cy="77.2989" r="4.82265" transform="rotate(1.04394 37.0987 77.2989)" fill="#413F3F" fill-opacity="0.8"/>
<circle cx="37.3769" cy="62.0297" r="4.82265" transform="rotate(1.04394 37.3769 62.0297)" fill="#413F3F" fill-opacity="0.8"/>
<circle cx="37.6551" cy="46.7606" r="4.82265" transform="rotate(1.04394 37.6551 46.7606)" fill="#413F3F" fill-opacity="0.8"/>
<path d="M82.0776 22.2534L9.33066 58.1646L7.63364 51.0658L3.9627 49.4513L3.3602 46.3387L1.48053 44.6358L69.412 11.2068L70.4623 14.2973L73.2597 16.4038L77.0411 20.2574L82.0776 22.2534Z" fill="#C4C4C4" fill-opacity="0.8"/>
</svg>
